# Blender 4.2.0
# www.blender.org
mtllib combobinator.mtl
o mesh
v 0.031250 1.986619 -0.535437
v -0.031250 1.986619 -0.535437
v 0.062500 2.187500 -0.687500
v -0.062500 2.187500 -0.687500
v 0.031250 2.017869 -0.481310
v -0.031250 2.017869 -0.481310
v 0.062500 2.195873 -0.547997
v -0.062500 2.195873 -0.547997
v -0.062500 2.133373 -0.656250
v 0.062500 2.133373 -0.656250
v 0.535437 1.986619 0.031250
v 0.535437 1.986619 -0.031250
v 0.687500 2.187500 0.062500
v 0.687500 2.187500 -0.062500
v 0.481310 2.017869 0.031250
v 0.481310 2.017869 -0.031250
v 0.547997 2.195873 0.062500
v 0.547997 2.195874 -0.062500
v 0.656250 2.133373 -0.062500
v 0.656250 2.133373 0.062500
v -0.535437 1.986619 -0.031250
v -0.535437 1.986619 0.031250
v -0.687500 2.187500 -0.062500
v -0.687500 2.187500 0.062500
v -0.481310 2.017869 -0.031250
v -0.481310 2.017869 0.031250
v -0.547997 2.195874 -0.062500
v -0.547997 2.195873 0.062500
v -0.656250 2.133373 0.062500
v -0.656250 2.133373 -0.062500
v -0.031250 1.986619 0.535437
v 0.031250 1.986619 0.535437
v -0.062500 2.187500 0.687500
v 0.062500 2.187500 0.687500
v -0.031250 2.017869 0.481310
v 0.031250 2.017869 0.481310
v -0.062500 2.195873 0.547996
v 0.062500 2.195873 0.547996
v 0.062500 2.133373 0.656250
v -0.062500 2.133373 0.656250
v 0.031250 1.013381 -0.535437
v -0.031250 1.013381 -0.535437
v 0.062500 0.812500 -0.687500
v -0.062500 0.812500 -0.687500
v 0.031250 0.982131 -0.481310
v -0.031250 0.982131 -0.481310
v 0.062500 0.804127 -0.547997
v -0.062500 0.804127 -0.547997
v -0.062500 0.866627 -0.656250
v 0.062500 0.866627 -0.656250
v 0.535437 1.013381 0.031250
v 0.535437 1.013381 -0.031250
v 0.687500 0.812500 0.062500
v 0.687500 0.812500 -0.062500
v 0.481310 0.982131 0.031250
v 0.481310 0.982131 -0.031250
v 0.547997 0.804127 0.062500
v 0.547997 0.804127 -0.062500
v 0.656250 0.866627 -0.062500
v 0.656250 0.866627 0.062500
v -0.535437 1.013381 -0.031250
v -0.535437 1.013381 0.031250
v -0.687500 0.812500 -0.062500
v -0.687500 0.812500 0.062500
v -0.481310 0.982131 -0.031250
v -0.481310 0.982131 0.031250
v -0.547997 0.804127 -0.062500
v -0.547997 0.804127 0.062500
v -0.656250 0.866627 0.062500
v -0.656250 0.866627 -0.062500
v -0.031250 1.013381 0.535437
v 0.031250 1.013381 0.535437
v -0.062500 0.812500 0.687500
v 0.062500 0.812500 0.687500
v -0.031250 0.982131 0.481310
v 0.031250 0.982131 0.481310
v -0.062500 0.804127 0.547997
v 0.062500 0.804127 0.547997
v 0.062500 0.866627 0.656250
v -0.062500 0.866627 0.656250
v 1.375000 2.500000 0.937500
v 1.375000 2.500000 -0.937500
v 1.375000 0.500000 0.937500
v 1.375000 0.500000 -0.937500
v -1.375000 2.500000 0.937500
v -1.375000 2.500000 -0.937500
v -1.375000 0.500000 0.937500
v -1.375000 0.500000 -0.937500
v 0.937500 2.500000 -1.375000
v 0.937500 0.500000 -1.375000
v -0.937500 0.500000 1.375000
v -0.937500 2.500000 1.375000
v 0.937500 2.500000 1.375000
v 0.937500 0.500000 1.375000
v -0.937500 2.500000 -1.375000
v -0.937500 0.500000 -1.375000
v 1.500000 2.500000 1.375000
v 1.500000 2.500000 -1.375000
v 1.500000 3.000000 1.375000
v 1.500000 3.000000 -1.375000
v -1.500000 2.500000 1.375000
v -1.500000 2.500000 -1.375000
v -1.500000 3.000000 1.375000
v -1.500000 3.000000 -1.375000
v 1.375000 3.000000 -1.500000
v 1.375000 2.500000 -1.500000
v -1.375000 2.500000 -1.500000
v -1.375000 3.000000 -1.500000
v -1.375000 2.500000 1.500000
v 1.375000 2.500000 1.500000
v 1.375000 3.000000 1.500000
v -1.375000 3.000000 1.500000
v 1.500000 0.500000 1.375000
v 1.500000 0.500000 -1.375000
v 1.500000 0.000000 1.375000
v 1.500000 -0.000000 -1.375000
v -1.500000 0.500000 1.375000
v -1.500000 0.500000 -1.375000
v -1.500000 0.000000 1.375000
v -1.500000 -0.000000 -1.375000
v 1.375000 -0.000000 -1.500000
v 1.375000 0.500000 -1.500000
v -1.375000 0.500000 -1.500000
v -1.375000 -0.000000 -1.500000
v -1.375000 0.500000 1.500000
v 1.375000 0.500000 1.500000
v 1.375000 0.000000 1.500000
v -1.375000 0.000000 1.500000
v 0.312500 2.500000 0.312500
v 0.312500 2.500000 -0.312500
v 0.312500 2.312500 0.312500
v 0.312500 2.312500 -0.312500
v -0.312500 2.500000 0.312500
v -0.312500 2.500000 -0.312500
v -0.312500 2.312500 0.312500
v -0.312500 2.312500 -0.312500
v -1.500000 2.312500 0.312500
v -1.500000 2.312500 -0.312500
v 1.500000 2.312500 0.312500
v 1.500000 2.312500 -0.312500
v 0.312500 2.312500 -1.500000
v -0.312500 2.312500 -1.500000
v 0.312500 2.312500 1.500000
v -0.312500 2.312500 1.500000
v 1.500000 2.187500 0.187500
v 1.500000 2.187500 -0.187500
v 0.187500 2.187500 -0.187500
v -0.187500 2.187500 1.500000
v 0.187500 2.187500 1.500000
v 0.187500 2.187500 -1.500000
v -0.187500 2.187500 -1.500000
v 0.187500 2.187500 -0.187500
v -0.187500 2.187500 -0.187500
v -1.500000 2.187500 -0.187500
v -1.500000 2.187500 0.187500
v -0.187500 2.187500 0.187500
v 0.187500 2.187500 0.187500
v -1.500000 2.500000 -0.312500
v -1.500000 2.500000 0.312500
v 0.312500 2.500000 -1.500000
v -0.312500 2.500000 -1.500000
v 1.500000 2.500000 0.312500
v 1.500000 2.500000 -0.312500
v -0.312500 2.500000 1.500000
v 0.312500 2.500000 1.500000
v 0.312500 0.500000 0.312500
v 0.312500 0.500000 -0.312500
v 0.312500 0.687500 0.312500
v 0.312500 0.687500 -0.312500
v -0.312500 0.500000 0.312500
v -0.312500 0.500000 -0.312500
v -0.312500 0.687500 0.312500
v -0.312500 0.687500 -0.312500
v -1.500000 0.687500 0.312500
v -1.500000 0.687500 -0.312500
v 1.500000 0.687500 0.312500
v 1.500000 0.687500 -0.312500
v 0.312500 0.687500 -1.500000
v -0.312500 0.687500 -1.500000
v 0.312500 0.687500 1.500000
v -0.312500 0.687500 1.500000
v 1.500000 0.812500 0.187500
v 1.500000 0.812500 -0.187500
v 0.187500 0.812500 -0.187500
v -0.187500 0.812500 1.500000
v 0.187500 0.812500 1.500000
v 0.187500 0.812500 -1.500000
v -0.187500 0.812500 -1.500000
v 0.187500 0.812500 -0.187500
v -0.187500 0.812500 -0.187500
v -1.500000 0.812500 -0.187500
v -1.500000 0.812500 0.187500
v -0.187500 0.812500 0.187500
v 0.187500 0.812500 0.187500
v -1.500000 0.500000 -0.312500
v -1.500000 0.500000 0.312500
v 0.312500 0.500000 -1.500000
v -0.312500 0.500000 -1.500000
v 1.500000 0.500000 0.312500
v 1.500000 0.500000 -0.312500
v -0.312500 0.500000 1.500000
v 0.312500 0.500000 1.500000
vn -0.0000 -0.6356 -0.7720
vn -0.0000 0.3508 0.9364
vn -0.0000 -0.8660 0.5000
vn 0.9864 -0.1424 0.0822
vn -0.9864 -0.1424 0.0822
vn -1.0000 -0.0000 -0.0000
vn -0.0000 -0.5000 -0.8660
vn 1.0000 -0.0000 -0.0000
vn 0.7720 -0.6356 -0.0000
vn -0.9364 0.3508 -0.0000
vn -0.5000 -0.8660 -0.0000
vn -0.0822 -0.1424 0.9864
vn -0.0822 -0.1424 -0.9864
vn -0.0000 -0.0000 -1.0000
vn 0.8660 -0.5000 -0.0000
vn -0.0000 -0.0000 1.0000
vn -0.7720 -0.6356 -0.0000
vn 0.9364 0.3508 -0.0000
vn 0.5000 -0.8660 -0.0000
vn 0.0822 -0.1424 -0.9864
vn 0.0822 -0.1424 0.9864
vn -0.8660 -0.5000 -0.0000
vn -0.0000 -0.6356 0.7720
vn -0.0000 0.3508 -0.9364
vn -0.0000 -0.8660 -0.5000
vn -0.9864 -0.1424 -0.0822
vn 0.9864 -0.1424 -0.0822
vn -0.0000 -0.5000 0.8660
vn -0.0000 0.6356 -0.7720
vn -0.0000 -0.3508 0.9364
vn -0.0000 0.8660 0.5000
vn 0.9864 0.1424 0.0822
vn -0.9864 0.1424 0.0822
vn -0.0000 0.5000 -0.8660
vn 0.7720 0.6356 -0.0000
vn -0.9364 -0.3508 -0.0000
vn -0.5000 0.8660 -0.0000
vn -0.0822 0.1424 0.9864
vn -0.0822 0.1424 -0.9864
vn 0.8660 0.5000 -0.0000
vn -0.7720 0.6356 -0.0000
vn 0.9364 -0.3508 -0.0000
vn 0.5000 0.8660 -0.0000
vn 0.0822 0.1424 -0.9864
vn 0.0822 0.1424 0.9864
vn -0.8660 0.5000 -0.0000
vn -0.0000 0.6356 0.7720
vn -0.0000 -0.3508 -0.9364
vn -0.0000 0.8660 -0.5000
vn -0.9864 0.1424 -0.0822
vn 0.9864 0.1424 -0.0822
vn -0.0000 0.5000 0.8660
vn -0.7071 -0.0000 0.7071
vn 0.7071 -0.0000 0.7071
vn 0.7071 -0.0000 -0.7071
vn -0.7071 -0.0000 -0.7071
vn -0.0000 -1.0000 -0.0000
vn -0.0000 1.0000 -0.0000
vn -0.0000 -0.7071 0.7071
vn -0.0000 -0.7071 -0.7071
vn -0.7071 -0.7071 -0.0000
vn 0.7071 -0.7071 -0.0000
vn -0.0000 0.7071 0.7071
vn -0.0000 0.7071 -0.7071
vn -0.7071 0.7071 -0.0000
vn 0.7071 0.7071 -0.0000
vt 0.320312 0.819989
vt 0.326172 0.843750
vt 0.328125 0.819989
vt 0.335938 0.819989
vt 0.341797 0.843750
vt 0.343750 0.819989
vt 0.339844 0.812500
vt 0.335938 0.820312
vt 0.339844 0.820312
vt 0.314453 0.843750
vt 0.318359 0.843750
vt 0.333984 0.843750
vt 0.328125 0.820312
vt 0.335938 0.812500
vt 0.328125 0.812500
vt 0.320312 0.812500
vt 0.320312 0.820312
vt 0.312500 0.812500
vt 0.320312 0.851239
vt 0.326172 0.875000
vt 0.328125 0.851239
vt 0.343750 0.851239
vt 0.337891 0.875000
vt 0.341797 0.875000
vt 0.339844 0.843750
vt 0.335938 0.851562
vt 0.339844 0.851562
vt 0.314453 0.875000
vt 0.318359 0.875000
vt 0.333984 0.875000
vt 0.335938 0.851239
vt 0.328125 0.851562
vt 0.335938 0.843750
vt 0.328125 0.843750
vt 0.320312 0.843750
vt 0.320312 0.851562
vt 0.312500 0.843750
vt 0.328125 0.788739
vt 0.322266 0.812500
vt 0.326172 0.812500
vt 0.335938 0.788739
vt 0.341797 0.812500
vt 0.343750 0.788739
vt 0.339844 0.789062
vt 0.335938 0.781250
vt 0.335938 0.789062
vt 0.320312 0.788739
vt 0.314453 0.812500
vt 0.318359 0.812500
vt 0.333984 0.812500
vt 0.328125 0.789062
vt 0.328125 0.781250
vt 0.320312 0.789062
vt 0.320312 0.781250
vt 0.312500 0.781250
vt 0.320312 0.757489
vt 0.326172 0.781250
vt 0.328125 0.757489
vt 0.335938 0.757489
vt 0.341797 0.781250
vt 0.343750 0.757489
vt 0.339844 0.750000
vt 0.335938 0.757812
vt 0.339844 0.757812
vt 0.314453 0.781250
vt 0.318359 0.781250
vt 0.333984 0.781250
vt 0.328125 0.757812
vt 0.335938 0.750000
vt 0.328125 0.750000
vt 0.320312 0.750000
vt 0.320312 0.757812
vt 0.312500 0.750000
vt 0.320312 0.944989
vt 0.326172 0.968750
vt 0.322266 0.968750
vt 0.335938 0.944989
vt 0.341797 0.968750
vt 0.337891 0.968750
vt 0.339844 0.937500
vt 0.335938 0.945312
vt 0.335938 0.937500
vt 0.314453 0.968750
vt 0.318359 0.968750
vt 0.328125 0.944989
vt 0.333984 0.968750
vt 0.330078 0.968750
vt 0.328125 0.945312
vt 0.328125 0.937500
vt 0.320312 0.937500
vt 0.320312 0.945312
vt 0.312500 0.937500
vt 0.322266 1.000000
vt 0.328125 0.976239
vt 0.326172 1.000000
vt 0.335938 0.976239
vt 0.341797 1.000000
vt 0.337891 1.000000
vt 0.335938 0.968750
vt 0.339844 0.976562
vt 0.335938 0.976562
vt 0.312500 0.976239
vt 0.318359 1.000000
vt 0.314453 1.000000
vt 0.330078 1.000000
vt 0.333984 1.000000
vt 0.328125 0.976562
vt 0.328125 0.968750
vt 0.320312 0.968750
vt 0.320312 0.976562
vt 0.312500 0.968750
vt 0.320312 0.913739
vt 0.326172 0.937500
vt 0.322266 0.937500
vt 0.337891 0.937500
vt 0.343750 0.913739
vt 0.341797 0.937500
vt 0.339844 0.906250
vt 0.335938 0.914062
vt 0.335938 0.906250
vt 0.312500 0.913739
vt 0.318359 0.937500
vt 0.314453 0.937500
vt 0.330078 0.937500
vt 0.335938 0.913739
vt 0.333984 0.937500
vt 0.328125 0.914062
vt 0.328125 0.906250
vt 0.320312 0.914062
vt 0.320312 0.906250
vt 0.312500 0.906250
vt 0.320312 0.882489
vt 0.326172 0.906250
vt 0.322266 0.906250
vt 0.335938 0.882489
vt 0.341797 0.906250
vt 0.337891 0.906250
vt 0.339844 0.875000
vt 0.335938 0.882812
vt 0.335938 0.875000
vt 0.314453 0.906250
vt 0.318359 0.906250
vt 0.328125 0.882489
vt 0.333984 0.906250
vt 0.330078 0.906250
vt 0.328125 0.882812
vt 0.328125 0.875000
vt 0.320312 0.875000
vt 0.320312 0.882812
vt 0.312500 0.875000
vt 0.195312 0.750000
vt 0.312500 0.500000
vt 0.312500 1.000000
vt 0.156250 0.750000
vt 0.039062 0.500000
vt 0.156250 0.500000
vt 0.039062 1.000000
vt 0.156250 1.000000
vt 0.000000 0.500000
vt 0.038670 0.750000
vt 0.000000 0.750000
vt 0.194920 0.500000
vt 0.194920 0.750000
vt 0.000000 1.000000
vt 0.038670 1.000000
vt 0.194920 1.000000
vt 0.750000 0.781250
vt 0.718750 0.437500
vt 0.718750 0.781250
vt 0.500000 0.781250
vt 0.531250 0.437500
vt 0.500000 0.437500
vt 0.531250 0.000000
vt 0.718750 0.343750
vt 0.531250 0.343750
vt 0.531250 0.781250
vt 0.710938 0.859375
vt 0.539062 0.796875
vt 0.539062 0.859375
vt 0.710938 0.359375
vt 0.539062 0.421875
vt 0.710938 0.421875
vt 0.722656 0.359375
vt 0.539062 0.359375
vt 0.527344 0.359375
vt 0.527344 0.421875
vt 0.531250 0.875000
vt 0.722656 0.796875
vt 0.710938 0.796875
vt 0.527344 0.796875
vt 0.527344 0.859375
vt 1.000000 0.437500
vt 0.968750 0.781250
vt 0.968750 0.437500
vt 0.781250 0.781250
vt 0.750000 0.437500
vt 0.781250 0.437500
vt 0.960938 0.859375
vt 0.789062 0.796875
vt 0.960938 0.796875
vt 0.960938 0.359375
vt 0.789062 0.421875
vt 0.789062 0.359375
vt 0.960938 0.421875
vt 0.972656 0.359375
vt 0.972656 0.421875
vt 0.968750 0.343750
vt 0.781250 0.343750
vt 0.777344 0.421875
vt 0.777344 0.359375
vt 0.781250 0.875000
vt 0.968750 0.875000
vt 0.972656 0.796875
vt 0.972656 0.859375
vt 0.777344 0.796875
vt 0.789062 0.859375
vt 0.777344 0.859375
vt 0.781250 0.000000
vt 0.968750 0.000000
vt 0.468750 0.273438
vt 0.394531 0.296875
vt 0.468750 0.296875
vt 0.468750 0.171875
vt 0.394531 0.195312
vt 0.468750 0.195312
vt 0.449219 0.210938
vt 0.367188 0.257812
vt 0.449219 0.257812
vt 0.234375 0.296875
vt 0.308594 0.273438
vt 0.234375 0.273438
vt 0.253906 0.257812
vt 0.335938 0.210938
vt 0.253906 0.210938
vt 0.234375 0.195312
vt 0.308594 0.171875
vt 0.234375 0.171875
vt 0.332031 0.000000
vt 0.320312 0.148438
vt 0.332031 0.148438
vt 0.339844 0.039062
vt 0.363281 0.203125
vt 0.363281 0.039062
vt 0.371094 0.000000
vt 0.382812 0.148438
vt 0.382812 0.000000
vt 0.320312 0.468750
vt 0.332031 0.320312
vt 0.320312 0.320312
vt 0.382812 0.468750
vt 0.371094 0.320312
vt 0.371094 0.468750
vt 0.363281 0.429688
vt 0.339844 0.265625
vt 0.339844 0.429688
vt 0.328125 0.273438
vt 0.253906 0.273438
vt 0.246094 0.195312
vt 0.246094 0.273438
vt 0.328125 0.195312
vt 0.253906 0.195312
vt 0.371094 0.281250
vt 0.371094 0.429688
vt 0.332031 0.445312
vt 0.371094 0.445312
vt 0.332031 0.281250
vt 0.332031 0.429688
vt 0.332031 0.187500
vt 0.332031 0.039062
vt 0.371094 0.023438
vt 0.332031 0.023438
vt 0.371094 0.187500
vt 0.371094 0.039062
vt 0.375000 0.195312
vt 0.449219 0.195312
vt 0.457031 0.195312
vt 0.457031 0.273438
vt 0.375000 0.273438
vt 0.449219 0.273438
vt 0.339844 0.210938
vt 0.363281 0.257812
vt 0.363281 0.210938
vt 0.332031 0.468750
vt 0.160156 0.296875
vt 0.160156 0.273438
vt 0.160156 0.195312
vt 0.160156 0.171875
vt 0.214844 0.210938
vt 0.132812 0.257812
vt 0.132812 0.210938
vt 0.000000 0.296875
vt 0.074219 0.273438
vt 0.074219 0.296875
vt 0.019531 0.257812
vt 0.101562 0.210938
vt 0.101562 0.257812
vt 0.000000 0.195312
vt 0.074219 0.171875
vt 0.074219 0.195312
vt 0.085938 0.000000
vt 0.097656 0.148438
vt 0.085938 0.148438
vt 0.105469 0.039062
vt 0.128906 0.203125
vt 0.105469 0.203125
vt 0.136719 0.148438
vt 0.148438 0.000000
vt 0.148438 0.148438
vt 0.097656 0.468750
vt 0.085938 0.320312
vt 0.097656 0.320312
vt 0.148438 0.320312
vt 0.136719 0.468750
vt 0.136719 0.320312
vt 0.128906 0.429688
vt 0.105469 0.265625
vt 0.128906 0.265625
vt 0.093750 0.273438
vt 0.019531 0.273438
vt 0.019531 0.210938
vt 0.011719 0.273438
vt 0.011719 0.195312
vt 0.093750 0.195312
vt 0.136719 0.281250
vt 0.136719 0.429688
vt 0.097656 0.445312
vt 0.105469 0.429688
vt 0.097656 0.281250
vt 0.097656 0.187500
vt 0.097656 0.039062
vt 0.136719 0.023438
vt 0.128906 0.039062
vt 0.136719 0.187500
vt 0.140625 0.195312
vt 0.214844 0.195312
vt 0.222656 0.273438
vt 0.214844 0.257812
vt 0.140625 0.273438
vt 0.105469 0.210938
vt 0.128906 0.257812
vt 0.105469 0.257812
vt 0.222656 0.195312
vt 0.097656 0.000000
vt 0.097656 0.023438
vt 0.136719 0.445312
vt 0.322266 0.843750
vt 0.337891 0.843750
vt 0.312500 0.819989
vt 0.330078 0.843750
vt 0.322266 0.875000
vt 0.312500 0.851239
vt 0.330078 0.875000
vt 0.337891 0.812500
vt 0.339844 0.781250
vt 0.312500 0.788739
vt 0.330078 0.812500
vt 0.322266 0.781250
vt 0.337891 0.781250
vt 0.312500 0.757489
vt 0.330078 0.781250
vt 0.343750 0.944989
vt 0.339844 0.945312
vt 0.312500 0.944989
vt 0.320312 0.976239
vt 0.343750 0.976239
vt 0.339844 0.968750
vt 0.328125 0.913739
vt 0.339844 0.914062
vt 0.343750 0.882489
vt 0.339844 0.882812
vt 0.312500 0.882489
vt 0.195312 0.500000
vt 0.195312 1.000000
vt 0.039062 0.750000
vt 0.038670 0.500000
vt 0.718750 0.000000
vt 0.722656 0.421875
vt 0.718750 0.875000
vt 0.722656 0.859375
vt 1.000000 0.781250
vt 0.394531 0.273438
vt 0.394531 0.171875
vt 0.367188 0.210938
vt 0.308594 0.296875
vt 0.335938 0.257812
vt 0.308594 0.195312
vt 0.320312 0.000000
vt 0.339844 0.203125
vt 0.371094 0.148438
vt 0.382812 0.320312
vt 0.363281 0.265625
vt 0.339844 0.257812
vt 0.000000 0.273438
vt 0.000000 0.171875
vt 0.136719 0.000000
vt 0.085938 0.468750
vt 0.148438 0.468750
vt 0.019531 0.195312
vt 0.097656 0.429688
vt 0.136719 0.039062
vt 0.214844 0.273438
vt 0.128906 0.210938
s 0
usemtl m_1c5250b1-c0f0-0538-1d30-79f51cb1a72f.002
f 10/1/1 2/2/1 9/3/1
f 8/4/2 5/5/2 7/6/2
f 1/7/3 6/8/3 2/9/3
f 10/1/4 5/10/4 1/11/4
f 9/3/5 6/12/5 8/4/5
f 9/13/6 8/14/6 4/15/6
f 9/13/7 3/16/7 10/17/7
f 10/17/8 3/16/8 7/18/8
f 20/19/9 12/20/9 19/21/9
f 17/22/10 16/23/10 15/24/10
f 11/25/11 16/26/11 12/27/11
f 20/19/12 15/28/12 11/29/12
f 19/21/13 16/30/13 18/31/13
f 19/32/14 18/33/14 14/34/14
f 19/32/15 13/35/15 20/36/15
f 20/36/16 13/35/16 17/37/16
f 29/38/17 21/39/17 22/40/17
f 28/41/18 25/42/18 27/43/18
f 22/44/19 25/45/19 26/46/19
f 30/47/20 25/48/20 21/49/20
f 29/38/21 26/50/21 28/41/21
f 29/51/16 28/45/16 24/52/16
f 30/53/22 24/52/22 23/54/22
f 30/53/14 23/54/14 27/55/14
f 40/56/23 32/57/23 39/58/23
f 38/59/24 35/60/24 37/61/24
f 31/62/25 36/63/25 32/64/25
f 40/56/26 35/65/26 31/66/26
f 39/58/27 36/67/27 38/59/27
f 39/68/8 38/69/8 34/70/8
f 39/68/28 33/71/28 40/72/28
f 40/72/6 33/71/6 37/73/6
f 50/74/29 42/75/29 41/76/29
f 48/77/30 45/78/30 46/79/30
f 41/80/31 46/81/31 45/82/31
f 45/83/32 50/74/32 41/84/32
f 49/85/33 46/86/33 42/87/33
f 48/82/6 49/88/6 44/89/6
f 49/88/34 43/90/34 44/89/34
f 43/90/8 50/91/8 47/92/8
f 51/93/35 59/94/35 52/95/35
f 58/96/36 55/97/36 56/98/36
f 55/99/37 52/100/37 56/101/37
f 57/102/38 51/103/38 55/104/38
f 52/105/39 58/96/39 56/106/39
f 58/99/14 59/107/14 54/108/14
f 59/107/40 53/109/40 54/108/40
f 53/109/16 60/110/16 57/111/16
f 70/112/41 62/113/41 61/114/41
f 66/115/42 67/116/42 65/117/42
f 61/118/43 66/119/43 65/120/43
f 67/121/44 61/122/44 65/123/44
f 62/124/45 68/125/45 66/126/45
f 68/120/16 69/127/16 64/128/16
f 64/128/46 70/129/46 63/130/46
f 63/130/14 70/129/14 67/131/14
f 80/132/47 72/133/47 71/134/47
f 78/135/48 75/136/48 76/137/48
f 71/138/49 76/139/49 75/140/49
f 75/141/50 80/132/50 71/142/50
f 79/143/51 76/144/51 72/145/51
f 78/140/8 79/146/8 74/147/8
f 79/146/52 73/148/52 74/147/52
f 73/148/6 80/149/6 77/150/6
f 81/151/8 84/152/8 82/73/8
f 85/153/6 88/151/6 87/73/6
f 93/154/16 91/155/16 94/156/16
f 89/157/14 96/154/14 95/158/14
f 87/159/53 92/160/53 85/161/53
f 93/154/54 83/162/54 81/163/54
f 82/164/55 90/160/55 89/165/55
f 86/166/56 96/154/56 88/163/56
f 97/167/8 100/168/8 99/169/8
f 101/170/6 104/171/6 102/172/6
f 97/173/57 102/174/57 98/175/57
f 99/169/58 104/171/58 103/176/58
f 110/177/16 112/178/16 109/179/16
f 106/180/14 108/181/14 105/182/14
f 105/182/55 98/183/55 106/180/55
f 106/184/57 102/174/57 107/180/57
f 108/181/56 102/185/56 104/186/56
f 108/181/58 100/168/58 105/182/58
f 109/177/57 97/187/57 110/179/57
f 110/177/54 99/188/54 111/189/54
f 111/189/58 103/176/58 112/178/58
f 109/179/53 103/190/53 101/191/53
f 114/192/8 115/193/8 116/194/8
f 119/195/6 118/196/6 120/197/6
f 115/193/57 120/197/57 116/194/57
f 126/198/16 128/199/16 127/200/16
f 122/201/14 124/202/14 123/203/14
f 121/204/55 114/205/55 116/206/55
f 122/203/58 118/207/58 114/208/58
f 123/203/56 120/209/56 118/210/56
f 124/202/57 116/194/57 120/197/57
f 125/198/58 113/211/58 117/212/58
f 126/198/54 115/213/54 113/214/54
f 127/200/57 119/195/57 115/193/57
f 119/215/53 125/216/53 117/217/53
f 113/218/58 118/207/58 117/219/58
f 137/220/16 133/221/16 159/222/16
f 158/223/14 136/224/14 138/225/14
f 154/226/57 156/227/57 155/228/57
f 162/229/16 131/230/16 139/231/16
f 145/232/57 147/233/57 146/234/57
f 140/235/14 130/236/14 163/237/14
f 141/238/8 130/239/8 132/240/8
f 150/241/57 153/242/57 151/243/57
f 142/244/6 134/245/6 161/246/6
f 165/247/8 131/248/8 129/249/8
f 164/250/6 135/251/6 144/252/6
f 148/253/57 157/254/57 149/255/57
f 131/256/59 145/232/59 139/257/59
f 145/232/8 140/258/8 139/259/8
f 146/234/60 132/260/60 140/261/60
f 135/262/61 148/253/61 144/263/61
f 148/253/16 143/264/16 144/265/16
f 149/255/62 131/266/62 143/267/62
f 132/268/62 150/241/62 141/269/62
f 150/241/14 142/270/14 141/271/14
f 151/243/61 136/272/61 142/273/61
f 136/274/60 154/226/60 138/275/60
f 138/276/6 155/228/6 137/277/6
f 155/228/59 135/278/59 137/279/59
f 156/280/57 152/281/57 157/282/57
f 159/220/6 138/276/6 137/277/6
f 160/238/14 142/270/14 161/244/14
f 162/231/8 140/258/8 163/235/8
f 164/252/16 143/264/16 165/283/16
f 174/231/16 170/284/16 172/285/16
f 195/237/14 173/286/14 171/287/14
f 191/288/58 193/289/58 190/290/58
f 199/291/16 168/292/16 166/293/16
f 182/294/58 184/295/58 194/296/58
f 177/297/14 167/298/14 169/299/14
f 197/300/8 169/301/8 167/302/8
f 187/303/58 190/304/58 189/305/58
f 173/306/6 198/307/6 171/308/6
f 180/309/8 166/310/8 168/311/8
f 170/312/6 181/313/6 172/314/6
f 185/315/58 194/316/58 193/317/58
f 182/294/63 168/318/63 176/319/63
f 183/320/8 176/321/8 177/322/8
f 183/320/64 169/323/64 184/295/64
f 185/315/65 172/324/65 181/325/65
f 185/315/16 180/326/16 186/327/16
f 186/327/66 168/328/66 194/316/66
f 187/303/66 169/329/66 178/330/66
f 187/303/14 179/331/14 188/332/14
f 188/332/65 173/333/65 190/304/65
f 191/288/64 173/334/64 175/335/64
f 191/288/6 174/336/6 192/337/6
f 192/337/63 172/338/63 193/289/63
f 193/339/58 189/340/58 190/341/58
f 195/235/6 174/336/6 175/342/6
f 197/343/14 179/331/14 178/344/14
f 176/321/8 200/297/8 177/322/8
f 201/313/16 180/326/16 181/345/16
f 10/1/1 1/346/1 2/2/1
f 8/4/2 6/347/2 5/5/2
f 1/7/3 5/14/3 6/8/3
f 10/1/4 7/348/4 5/10/4
f 9/3/5 2/349/5 6/12/5
f 9/13/7 4/15/7 3/16/7
f 20/19/9 11/350/9 12/20/9
f 17/22/10 18/31/10 16/23/10
f 11/25/11 15/33/11 16/26/11
f 20/19/12 17/351/12 15/28/12
f 19/21/13 12/352/13 16/30/13
f 19/32/15 14/34/15 13/35/15
f 29/38/17 30/47/17 21/39/17
f 28/41/18 26/353/18 25/42/18
f 22/44/19 21/354/19 25/45/19
f 30/47/20 27/355/20 25/48/20
f 29/38/21 22/356/21 26/50/21
f 30/53/22 29/51/22 24/52/22
f 40/56/23 31/357/23 32/57/23
f 38/59/24 36/358/24 35/60/24
f 31/62/25 35/69/25 36/63/25
f 40/56/26 37/359/26 35/65/26
f 39/58/27 32/360/27 36/67/27
f 39/68/28 34/70/28 33/71/28
f 50/74/29 49/85/29 42/75/29
f 48/77/30 47/361/30 45/78/30
f 41/80/31 42/362/31 46/81/31
f 45/83/32 47/363/32 50/74/32
f 49/85/33 48/77/33 46/86/33
f 49/88/34 50/91/34 43/90/34
f 51/93/35 60/364/35 59/94/35
f 58/96/36 57/365/36 55/97/36
f 55/99/37 51/366/37 52/100/37
f 57/102/38 60/364/38 51/103/38
f 52/105/39 59/94/39 58/96/39
f 59/107/40 60/110/40 53/109/40
f 70/112/41 69/367/41 62/113/41
f 66/115/42 68/125/42 67/116/42
f 61/118/43 62/368/43 66/119/43
f 67/121/44 70/112/44 61/122/44
f 62/124/45 69/367/45 68/125/45
f 64/128/46 69/127/46 70/129/46
f 80/132/47 79/143/47 72/133/47
f 78/135/48 77/369/48 75/136/48
f 71/138/49 72/370/49 76/139/49
f 75/141/50 77/371/50 80/132/50
f 79/143/51 78/135/51 76/144/51
f 79/146/52 80/149/52 73/148/52
f 81/151/8 83/372/8 84/152/8
f 85/153/6 86/373/6 88/151/6
f 93/154/16 92/374/16 91/155/16
f 89/157/14 90/374/14 96/154/14
f 87/159/53 91/375/53 92/160/53
f 93/154/54 94/156/54 83/162/54
f 82/164/55 84/161/55 90/160/55
f 86/166/56 95/158/56 96/154/56
f 97/167/8 98/196/8 100/168/8
f 101/170/6 103/176/6 104/171/6
f 97/173/57 101/376/57 102/174/57
f 99/169/58 100/168/58 104/171/58
f 110/177/16 111/189/16 112/178/16
f 106/180/14 107/184/14 108/181/14
f 105/182/55 100/377/55 98/183/55
f 106/184/57 98/175/57 102/174/57
f 108/181/56 107/184/56 102/185/56
f 108/181/58 104/171/58 100/168/58
f 109/177/57 101/378/57 97/187/57
f 110/177/54 97/379/54 99/188/54
f 111/189/58 99/169/58 103/176/58
f 109/179/53 112/178/53 103/190/53
f 114/192/8 113/380/8 115/193/8
f 119/195/6 117/167/6 118/196/6
f 115/193/57 119/195/57 120/197/57
f 126/198/16 125/216/16 128/199/16
f 122/201/14 121/204/14 124/202/14
f 121/204/55 122/201/55 114/205/55
f 122/203/58 123/201/58 118/207/58
f 123/203/56 124/202/56 120/209/56
f 124/202/57 121/204/57 116/194/57
f 125/198/58 126/216/58 113/211/58
f 126/198/54 127/200/54 115/213/54
f 127/200/57 128/199/57 119/195/57
f 119/215/53 128/199/53 125/216/53
f 113/218/58 114/208/58 118/207/58
f 137/220/16 135/381/16 133/221/16
f 158/223/14 134/382/14 136/224/14
f 154/226/57 153/383/57 156/227/57
f 162/229/16 129/384/16 131/230/16
f 145/232/57 157/385/57 147/233/57
f 140/235/14 132/386/14 130/236/14
f 141/238/8 160/387/8 130/239/8
f 150/241/57 152/388/57 153/242/57
f 142/244/6 136/389/6 134/245/6
f 165/247/8 143/283/8 131/248/8
f 164/250/6 133/390/6 135/251/6
f 148/253/57 156/391/57 157/254/57
f 131/256/59 157/385/59 145/232/59
f 145/232/8 146/234/8 140/258/8
f 146/234/60 147/233/60 132/260/60
f 135/262/61 156/391/61 148/253/61
f 148/253/16 149/255/16 143/264/16
f 149/255/62 157/254/62 131/266/62
f 132/268/62 152/388/62 150/241/62
f 150/241/14 151/243/14 142/270/14
f 151/243/61 153/242/61 136/272/61
f 136/274/60 153/383/60 154/226/60
f 138/276/6 154/226/6 155/228/6
f 155/228/59 156/227/59 135/278/59
f 156/280/57 153/392/57 152/281/57
f 159/220/6 158/225/6 138/276/6
f 160/238/14 141/271/14 142/270/14
f 162/231/8 139/259/8 140/258/8
f 164/252/16 144/265/16 143/264/16
f 174/231/16 196/229/16 170/284/16
f 195/237/14 175/235/14 173/286/14
f 191/288/58 192/337/58 193/289/58
f 199/291/16 176/393/16 168/292/16
f 182/294/58 183/320/58 184/295/58
f 177/297/14 200/394/14 167/298/14
f 197/300/8 178/343/8 169/301/8
f 187/303/58 188/332/58 190/304/58
f 173/306/6 179/395/6 198/307/6
f 180/309/8 202/396/8 166/310/8
f 170/312/6 201/397/6 181/313/6
f 185/315/58 186/327/58 194/316/58
f 182/294/63 194/296/63 168/318/63
f 183/320/8 182/294/8 176/321/8
f 183/320/64 177/398/64 169/323/64
f 185/315/65 193/317/65 172/324/65
f 185/315/16 181/345/16 180/326/16
f 186/327/66 180/399/66 168/328/66
f 187/303/66 189/305/66 169/329/66
f 187/303/14 178/344/14 179/331/14
f 188/332/65 179/400/65 173/333/65
f 191/288/64 190/290/64 173/334/64
f 191/288/6 175/342/6 174/336/6
f 192/337/63 174/401/63 172/338/63
f 193/339/58 194/402/58 189/340/58
f 195/235/6 196/231/6 174/336/6
f 197/343/14 198/395/14 179/331/14
f 176/321/8 199/393/8 200/297/8
f 201/313/16 202/309/16 180/326/16
