# Blender 5.1.2
# www.blender.org
o Cube.001
v 0.250000 -0.250000 0.250000
v -0.250000 -0.250000 0.250000
v 0.250000 -0.250000 -0.250000
v -0.250000 -0.250000 -0.250000
v 0.250000 0.500000 0.250000
v -0.250000 0.500000 0.250000
v 0.250000 0.500000 -0.250000
v -0.250000 0.500000 -0.250000
v 0.500000 -0.500000 0.500000
v -0.500000 -0.500000 0.500000
v 0.500000 -0.500000 -0.500000
v -0.500000 -0.500000 -0.500000
v 0.500000 -0.250000 0.500000
v -0.500000 -0.250000 0.500000
v 0.500000 -0.250000 -0.500000
v -0.500000 -0.250000 -0.500000
v -0.250000 -0.250000 0.250000
v -0.500000 -0.250000 0.250000
v -0.250000 -0.250000 -0.250000
v -0.500000 -0.250000 -0.250000
v -0.250000 0.250000 0.250000
v -0.500000 0.250000 0.250000
v -0.250000 0.250000 -0.250000
v -0.500000 0.250000 -0.250000
v 0.250000 -0.250000 -0.500000
v 0.250000 -0.250000 -0.250000
v -0.250000 -0.250000 -0.500000
v -0.250000 -0.250000 -0.250000
v 0.250000 0.250000 -0.500000
v 0.250000 0.250000 -0.250000
v -0.250000 0.250000 -0.500000
v -0.250000 0.250000 -0.250000
v 0.500000 -0.250000 0.250000
v 0.250000 -0.250000 0.250000
v 0.500000 -0.250000 -0.250000
v 0.250000 -0.250000 -0.250000
v 0.500000 0.250000 0.250000
v 0.250000 0.250000 0.250000
v 0.500000 0.250000 -0.250000
v 0.250000 0.250000 -0.250000
v 0.250000 -0.250000 0.250000
v 0.250000 -0.250000 0.500000
v -0.250000 -0.250000 0.250000
v -0.250000 -0.250000 0.500000
v 0.250000 0.250000 0.250000
v 0.250000 0.250000 0.500000
v -0.250000 0.250000 0.250000
v -0.250000 0.250000 0.500000
vn -0.0000 -0.0000 -1.0000
vn -0.0000 1.0000 -0.0000
vn -0.0000 -0.0000 1.0000
vn 1.0000 -0.0000 -0.0000
vn -1.0000 -0.0000 -0.0000
vn -0.0000 -1.0000 -0.0000
vt 0.625000 0.250000
vt 0.375000 0.500000
vt 0.375000 0.250000
vt 0.625000 0.500000
vt 0.375000 0.750000
vt 0.625000 0.750000
vt 0.375000 1.000000
vt 0.125000 0.750000
vt 0.125000 0.500000
vt 0.875000 0.500000
vt 0.625000 0.000000
vt 0.375000 0.000000
vt 0.625000 1.000000
vt 0.875000 0.750000
s 0
f 4/1/1 7/2/1 3/3/1
f 8/4/2 5/5/2 7/2/2
f 6/6/3 1/7/3 5/5/3
f 7/2/4 1/8/4 3/9/4
f 4/10/5 6/6/5 8/4/5
f 10/11/6 11/3/6 9/12/6
f 12/1/1 15/2/1 11/3/1
f 16/4/2 13/5/2 15/2/2
f 14/6/3 9/7/3 13/5/3
f 15/2/4 9/8/4 11/9/4
f 12/10/5 14/6/5 16/4/5
f 20/1/1 23/2/1 19/3/1
f 24/4/2 21/5/2 23/2/2
f 22/6/3 17/7/3 21/5/3
f 20/10/5 22/6/5 24/4/5
f 28/1/5 31/2/5 27/3/5
f 32/4/2 29/5/2 31/2/2
f 30/6/4 25/7/4 29/5/4
f 31/2/1 25/8/1 27/9/1
f 36/1/1 39/2/1 35/3/1
f 40/4/2 37/5/2 39/2/2
f 38/6/3 33/7/3 37/5/3
f 39/2/4 33/8/4 35/9/4
f 44/1/5 47/2/5 43/3/5
f 47/2/2 46/6/2 45/5/2
f 46/6/4 41/7/4 45/5/4
f 44/10/3 46/6/3 48/4/3
f 4/1/1 8/4/1 7/2/1
f 8/4/2 6/6/2 5/5/2
f 6/6/3 2/13/3 1/7/3
f 7/2/4 5/5/4 1/8/4
f 4/10/5 2/14/5 6/6/5
f 10/11/6 12/1/6 11/3/6
f 12/1/1 16/4/1 15/2/1
f 16/4/2 14/6/2 13/5/2
f 14/6/3 10/13/3 9/7/3
f 15/2/4 13/5/4 9/8/4
f 12/10/5 10/14/5 14/6/5
f 20/1/1 24/4/1 23/2/1
f 24/4/2 22/6/2 21/5/2
f 22/6/3 18/13/3 17/7/3
f 20/10/5 18/14/5 22/6/5
f 28/1/5 32/4/5 31/2/5
f 32/4/2 30/6/2 29/5/2
f 30/6/4 26/13/4 25/7/4
f 31/2/1 29/5/1 25/8/1
f 36/1/1 40/4/1 39/2/1
f 40/4/2 38/6/2 37/5/2
f 38/6/3 34/13/3 33/7/3
f 39/2/4 37/5/4 33/8/4
f 44/1/5 48/4/5 47/2/5
f 47/2/2 48/4/2 46/6/2
f 46/6/4 42/13/4 41/7/4
f 44/10/3 42/14/3 46/6/3
