# Blender 4.0.2
# www.blender.org
o Cylinder
v 0.000000 0.000000 -0.500000
v 0.000000 1.000000 -0.250000
v 0.000000 2.000000 -0.500000
v 0.000000 2.000000 -0.250000
v 0.097545 0.000000 -0.490393
v 0.048773 1.000000 -0.245196
v 0.097545 2.000000 -0.490393
v 0.048773 2.000000 -0.245196
v 0.191342 0.000000 -0.461940
v 0.095671 1.000000 -0.230970
v 0.191342 2.000000 -0.461940
v 0.095671 2.000000 -0.230970
v 0.277785 0.000000 -0.415735
v 0.138893 1.000000 -0.207867
v 0.277785 2.000000 -0.415735
v 0.138893 2.000000 -0.207867
v 0.176777 1.000000 -0.176777
v 0.353553 0.000000 -0.353553
v 0.353553 2.000000 -0.353553
v 0.176777 2.000000 -0.176777
v 0.415735 0.000000 -0.277785
v 0.207867 1.000000 -0.138893
v 0.415735 2.000000 -0.277785
v 0.207867 2.000000 -0.138893
v 0.230970 1.000000 -0.095671
v 0.461940 0.000000 -0.191342
v 0.461940 2.000000 -0.191342
v 0.230970 2.000000 -0.095671
v 0.490393 0.000000 -0.097545
v 0.245196 1.000000 -0.048773
v 0.245196 2.000000 -0.048773
v 0.490393 2.000000 -0.097545
v 0.500000 0.000000 0.000000
v 0.250000 1.000000 0.000000
v 0.250000 2.000000 0.000000
v 0.500000 2.000000 0.000000
v 0.490393 0.000000 0.097545
v 0.245196 1.000000 0.048773
v 0.245196 2.000000 0.048773
v 0.490393 2.000000 0.097545
v 0.461940 0.000000 0.191342
v 0.230970 1.000000 0.095671
v 0.230970 2.000000 0.095671
v 0.461940 2.000000 0.191342
v 0.415735 0.000000 0.277785
v 0.207867 1.000000 0.138893
v 0.207867 2.000000 0.138893
v 0.415735 2.000000 0.277785
v 0.353553 0.000000 0.353553
v 0.176777 1.000000 0.176777
v 0.353553 2.000000 0.353553
v 0.176777 2.000000 0.176777
v 0.277785 0.000000 0.415735
v 0.138893 1.000000 0.207867
v 0.277785 2.000000 0.415735
v 0.138893 2.000000 0.207867
v 0.191342 0.000000 0.461940
v 0.095671 1.000000 0.230970
v 0.191342 2.000000 0.461940
v 0.095671 2.000000 0.230970
v 0.097545 0.000000 0.490393
v 0.048773 1.000000 0.245196
v 0.097545 2.000000 0.490393
v 0.048773 2.000000 0.245196
v 0.000000 0.000000 0.500000
v 0.000000 1.000000 0.250000
v 0.000000 2.000000 0.250000
v 0.000000 2.000000 0.500000
v -0.097545 0.000000 0.490393
v -0.048773 1.000000 0.245196
v -0.097545 2.000000 0.490393
v -0.048773 2.000000 0.245196
v -0.191342 0.000000 0.461940
v -0.095671 1.000000 0.230970
v -0.191342 2.000000 0.461940
v -0.095671 2.000000 0.230970
v -0.277785 0.000000 0.415735
v -0.138893 1.000000 0.207867
v -0.277785 2.000000 0.415735
v -0.138893 2.000000 0.207867
v -0.353553 0.000000 0.353553
v -0.176777 1.000000 0.176777
v -0.176777 2.000000 0.176777
v -0.353553 2.000000 0.353553
v -0.415735 0.000000 0.277785
v -0.207867 1.000000 0.138893
v -0.415735 2.000000 0.277785
v -0.207867 2.000000 0.138893
v -0.461940 0.000000 0.191342
v -0.230970 1.000000 0.095671
v -0.461940 2.000000 0.191342
v -0.230970 2.000000 0.095671
v -0.490393 0.000000 0.097545
v -0.245196 1.000000 0.048773
v -0.245196 2.000000 0.048773
v -0.490393 2.000000 0.097545
v -0.500000 0.000000 0.000000
v -0.250000 1.000000 0.000000
v -0.500000 2.000000 0.000000
v -0.250000 2.000000 0.000000
v -0.490393 0.000000 -0.097545
v -0.245196 1.000000 -0.048773
v -0.490393 2.000000 -0.097545
v -0.245196 2.000000 -0.048773
v -0.461940 0.000000 -0.191342
v -0.230970 1.000000 -0.095671
v -0.461940 2.000000 -0.191342
v -0.230970 2.000000 -0.095671
v -0.415735 0.000000 -0.277785
v -0.207867 1.000000 -0.138893
v -0.415735 2.000000 -0.277785
v -0.207867 2.000000 -0.138893
v -0.353553 0.000000 -0.353553
v -0.176777 1.000000 -0.176777
v -0.176777 2.000000 -0.176777
v -0.353553 2.000000 -0.353553
v -0.277785 0.000000 -0.415735
v -0.138893 1.000000 -0.207867
v -0.138893 2.000000 -0.207867
v -0.277785 2.000000 -0.415735
v -0.191342 0.000000 -0.461940
v -0.095671 1.000000 -0.230970
v -0.095671 2.000000 -0.230970
v -0.191342 2.000000 -0.461940
v -0.097545 0.000000 -0.490393
v -0.048773 1.000000 -0.245196
v -0.048773 2.000000 -0.245196
v -0.097545 2.000000 -0.490393
s 1
usemtl Material
f 3 5 1
f 7 9 5
f 11 13 9
f 15 18 13
f 19 21 18
f 23 26 21
f 27 29 26
f 32 33 29
f 36 37 33
f 40 41 37
f 44 45 41
f 48 49 45
f 51 53 49
f 55 57 53
f 59 61 57
f 63 65 61
f 68 69 65
f 71 73 69
f 75 77 73
f 79 81 77
f 84 85 81
f 87 89 85
f 91 93 89
f 96 97 93
f 99 101 97
f 103 105 101
f 107 109 105
f 111 113 109
f 116 117 113
f 120 121 117
f 95 100 87
f 24 28 40
f 124 125 121
f 128 1 125
f 57 89 121
f 3 7 5
f 7 11 9
f 11 15 13
f 15 19 18
f 19 23 21
f 23 27 26
f 27 32 29
f 32 36 33
f 36 40 37
f 40 44 41
f 44 48 45
f 48 51 49
f 51 55 53
f 55 59 57
f 59 63 61
f 63 68 65
f 68 71 69
f 71 75 73
f 75 79 77
f 79 84 81
f 84 87 85
f 87 91 89
f 91 96 93
f 96 99 97
f 99 103 101
f 103 107 105
f 107 111 109
f 111 116 113
f 116 120 117
f 120 124 121
f 63 59 55
f 55 51 48
f 48 44 43
f 48 43 47
f 63 55 48
f 71 68 63
f 79 75 71
f 87 84 79
f 96 91 87
f 103 99 96
f 111 107 103
f 120 116 111
f 128 124 120
f 7 3 128
f 12 11 7
f 8 12 7
f 7 128 120
f 120 111 103
f 103 96 87
f 87 79 71
f 71 63 48
f 48 47 52
f 48 52 56
f 87 71 48
f 120 103 87
f 8 7 120
f 4 8 120
f 48 56 60
f 48 60 64
f 127 4 120
f 123 127 120
f 48 64 67
f 87 48 67
f 119 123 120
f 115 119 120
f 87 67 72
f 87 72 76
f 112 115 120
f 108 112 120
f 87 76 80
f 87 80 83
f 108 120 87
f 104 108 87
f 87 83 88
f 87 88 92
f 100 104 87
f 87 92 95
f 32 27 23
f 23 19 15
f 15 11 12
f 15 12 16
f 32 23 15
f 40 36 32
f 43 44 40
f 39 43 40
f 40 32 15
f 15 16 20
f 15 20 24
f 35 39 40
f 31 35 40
f 40 15 24
f 28 31 40
f 124 128 125
f 128 3 1
f 121 125 1
f 1 5 9
f 9 13 18
f 18 21 26
f 26 29 33
f 33 37 41
f 41 45 49
f 49 53 57
f 57 61 65
f 65 69 73
f 73 77 81
f 81 85 89
f 89 93 97
f 97 101 105
f 105 109 113
f 113 117 121
f 121 1 9
f 9 18 26
f 26 33 41
f 41 49 57
f 57 65 73
f 73 81 89
f 89 97 105
f 105 113 121
f 121 9 26
f 26 41 57
f 57 73 89
f 89 105 121
f 121 26 57
usemtl 
f 2 8 4
f 6 12 8
f 10 16 12
f 14 20 16
f 20 22 24
f 24 25 28
f 28 30 31
f 31 34 35
f 35 38 39
f 39 42 43
f 43 46 47
f 47 50 52
f 52 54 56
f 56 58 60
f 60 62 64
f 64 66 67
f 67 70 72
f 72 74 76
f 76 78 80
f 80 82 83
f 82 88 83
f 86 92 88
f 90 95 92
f 94 100 95
f 98 104 100
f 102 108 104
f 106 112 108
f 110 115 112
f 114 119 115
f 118 123 119
f 122 127 123
f 2 127 126
f 50 17 114
f 2 6 8
f 6 10 12
f 10 14 16
f 14 17 20
f 20 17 22
f 24 22 25
f 28 25 30
f 31 30 34
f 35 34 38
f 39 38 42
f 43 42 46
f 47 46 50
f 52 50 54
f 56 54 58
f 60 58 62
f 64 62 66
f 67 66 70
f 72 70 74
f 76 74 78
f 80 78 82
f 82 86 88
f 86 90 92
f 90 94 95
f 94 98 100
f 98 102 104
f 102 106 108
f 106 110 112
f 110 114 115
f 114 118 119
f 118 122 123
f 122 126 127
f 2 4 127
f 114 110 106
f 106 102 98
f 98 94 90
f 90 86 82
f 82 78 74
f 74 70 66
f 66 62 58
f 58 54 50
f 50 46 42
f 42 38 34
f 34 30 25
f 25 22 17
f 17 14 10
f 10 6 2
f 2 126 122
f 122 118 114
f 114 106 98
f 98 90 82
f 82 74 66
f 66 58 50
f 50 42 34
f 34 25 17
f 17 10 2
f 2 122 114
f 114 98 82
f 82 66 50
f 50 34 17
f 17 2 114
f 114 82 50
